# Blender v3.0.1 OBJ File: 'axe.blend'
# www.blender.org
mtllib axe_placed.mtl
o Cube.001
v 0.315831 -0.513802 0.453958
v 0.315831 -0.426198 0.453958
v 0.238345 -0.513802 0.518758
v 0.238345 -0.426198 0.518758
v -0.318643 -0.509671 -0.289527
v -0.318643 -0.430329 -0.289527
v -0.381161 -0.509671 -0.237244
v -0.381161 -0.430329 -0.237244
v 0.191366 -0.513802 0.341024
v 0.191366 -0.426198 0.341024
v 0.246900 -0.426198 0.407430
v 0.246900 -0.513802 0.407430
v 0.378555 -0.454805 0.111995
v 0.378555 -0.485195 0.111995
v 0.505433 -0.485195 0.263713
v 0.505433 -0.454805 0.263713
v 0.429861 -0.470000 0.069089
v 0.556739 -0.470000 0.220807
v 0.190864 -0.411173 0.484754
v 0.190864 -0.528442 0.484754
v 0.279362 -0.411173 0.410745
v 0.279362 -0.528442 0.410745
v 0.103905 -0.411173 0.380770
v 0.103905 -0.528442 0.380770
v 0.192403 -0.411173 0.306762
v 0.192403 -0.528442 0.306762
v -0.493223 -0.422080 -0.462464
v -0.493223 -0.517920 -0.462464
v -0.417705 -0.517920 -0.525618
v -0.417705 -0.422080 -0.525618
vt 0.948564 0.850471
vt 0.948564 0.940027
vt 0.845301 0.940027
vt 0.845301 0.850471
vt 0.706640 0.172033
vt 0.687262 0.253094
vt 0.425837 0.269949
vt 0.449244 0.172033
vt 0.590645 0.186844
vt 0.590645 0.097256
vt 0.675695 0.097256
vt 0.675695 0.186844
vt 0.000225 0.010180
vt 0.999735 0.000223
vt 0.999735 0.103522
vt 0.918011 0.079971
vt 0.829484 0.079971
vt 0.000223 0.093525
vt 0.999559 0.103662
vt 0.000401 0.093708
vt 0.000399 0.010393
vt 0.829367 0.023942
vt 0.917863 0.023942
vt 0.999559 0.000399
vt 0.000223 0.279365
vt 0.000223 0.198226
vt 0.829585 0.194002
vt 0.829585 0.283589
vt 0.999777 0.108192
vt 0.999777 0.189332
vt 0.000223 0.193556
vt 0.000223 0.103968
vt 0.364996 0.699270
vt 0.364996 0.901459
vt 0.294880 0.901459
vt 0.294880 0.699270
vt 0.018825 0.634055
vt 0.018825 0.545527
vt 0.317365 0.488661
vt 0.317365 0.690921
vt 0.020596 0.630686
vt 0.020596 0.542190
vt 0.319030 0.485343
vt 0.319030 0.687532
vt 0.383077 0.384492
vt 0.383077 0.474048
vt 0.080688 0.444804
vt 0.012314 0.429270
vt 0.080688 0.413736
vt 0.380417 0.387528
vt 0.380417 0.477116
vt 0.077921 0.447862
vt 0.009524 0.432322
vt 0.077921 0.416783
vt 0.364993 0.702588
vt 0.364993 0.904848
vt 0.294853 0.904848
vt 0.294853 0.702588
vt 0.262139 0.834054
vt 0.262139 0.953937
vt 0.144202 0.953937
vt 0.144202 0.834054
vt 0.565141 0.716170
vt 0.565141 0.836096
vt 0.426518 0.836096
vt 0.426518 0.716170
vt 0.277820 0.812568
vt 0.157894 0.812568
vt 0.157894 0.694590
vt 0.277820 0.694590
vt 0.427891 0.972978
vt 0.427891 0.853094
vt 0.566465 0.853094
vt 0.566465 0.972978
vt 0.145047 0.806367
vt 0.006424 0.806367
vt 0.006424 0.688389
vt 0.145047 0.688389
vt 0.130738 0.824753
vt 0.130738 0.963327
vt 0.012801 0.963327
vt 0.012801 0.824753
vt 0.940542 0.937794
vt 0.842566 0.937794
vt 0.842566 0.837154
vt 0.940542 0.837154
vt 0.262938 0.142736
vt 0.262938 0.061626
vt 0.520105 0.053193
vt 0.520105 0.151169
vt 0.561040 0.050640
vt 0.561040 0.131780
vt 0.299208 0.140215
vt 0.299208 0.042205
vt 0.352140 0.256197
vt 0.332769 0.175165
vt 0.590075 0.175165
vt 0.613473 0.273046
vn 0.6415 0.0000 0.7671
vn 0.0216 0.9994 0.0258
vn 0.5595 0.0000 -0.8289
vn -0.0061 1.0000 -0.0004
vn -0.0061 -1.0000 -0.0004
vn 0.7775 0.0000 -0.6289
vn -0.7735 0.0000 0.6338
vn 0.1700 -0.9751 -0.1421
vn 0.0752 0.9952 -0.0629
vn 0.0752 -0.9952 -0.0629
vn 0.4949 0.0000 0.8690
vn -0.7677 0.0000 -0.6408
vn 0.1700 0.9751 -0.1421
vn 0.7671 0.0000 -0.6415
vn -0.6415 0.0000 -0.7671
vn -0.7671 0.0000 0.6415
vn 0.0000 1.0000 0.0000
vn 0.0000 -1.0000 0.0000
vn -0.8953 0.0000 0.4455
vn 0.9221 0.0000 -0.3869
vn 0.0216 -0.9994 0.0258
usemtl Material.001
s off
f 1/1/1 2/2/1 4/3/1 3/4/1
f 8/5/2 6/6/2 30/7/2 27/8/2
f 12/9/3 11/10/3 2/11/3 1/12/3
f 8/13/4 4/14/4 2/15/4 11/16/4 10/17/4 6/18/4
f 3/19/5 7/20/5 5/21/5 9/22/5 12/23/5 1/24/5
f 5/25/6 6/26/6 10/27/6 9/28/6
f 8/29/7 7/30/7 3/31/7 4/32/7
f 15/33/8 14/34/8 17/35/8 18/36/8
f 10/37/9 11/38/9 16/39/9 13/40/9
f 12/41/10 9/42/10 14/43/10 15/44/10
f 11/45/11 12/46/11 15/47/11 18/48/11 16/49/11
f 9/50/12 10/51/12 13/52/12 17/53/12 14/54/12
f 18/55/13 17/56/13 13/57/13 16/58/13
f 19/59/1 20/60/1 22/61/1 21/62/1
f 21/63/14 22/64/14 26/65/14 25/66/14
f 25/67/15 26/68/15 24/69/15 23/70/15
f 23/71/16 24/72/16 20/73/16 19/74/16
f 21/75/17 25/76/17 23/77/17 19/78/17
f 26/79/18 22/80/18 20/81/18 24/82/18
f 28/83/15 27/84/15 30/85/15 29/86/15
f 7/87/19 8/88/19 27/89/19 28/90/19
f 6/91/20 5/92/20 29/93/20 30/94/20
f 5/95/21 7/96/21 28/97/21 29/98/21
