# Blender v3.0.1 OBJ File: 'axe.blend'
# www.blender.org
mtllib axe_placed.mtl
o Cube.001
v 0.050238 -0.500000 0.435104
v 0.050238 -0.442078 0.435104
v -0.016534 -0.500000 0.436502
v -0.016534 -0.442078 0.436502
v 0.030262 -0.497269 -0.210838
v 0.030262 -0.444809 -0.210838
v -0.023612 -0.497269 -0.209710
v -0.023612 -0.444809 -0.209710
v 0.032711 -0.500000 0.325372
v 0.032711 -0.442078 0.325372
v 0.033909 -0.442078 0.382596
v 0.033909 -0.500000 0.382596
v 0.223988 -0.460992 0.284593
v 0.223988 -0.481086 0.284593
v 0.226725 -0.481086 0.415333
v 0.226725 -0.460992 0.415333
v 0.268199 -0.471039 0.283667
v 0.270937 -0.471039 0.414408
v -0.026974 -0.432143 0.399325
v -0.026974 -0.509680 0.399325
v 0.049287 -0.432143 0.397728
v 0.049287 -0.509680 0.397728
v -0.028850 -0.432143 0.309720
v -0.028850 -0.509680 0.309720
v 0.047411 -0.432143 0.308123
v 0.047411 -0.509680 0.308123
v 0.011685 -0.439355 -0.372250
v 0.011685 -0.502723 -0.372250
v 0.076761 -0.502723 -0.373612
v 0.076761 -0.439355 -0.373612
vt 0.948564 0.850471
vt 0.948564 0.940027
vt 0.845301 0.940027
vt 0.845301 0.850471
vt 0.706640 0.172033
vt 0.687262 0.253094
vt 0.425837 0.269949
vt 0.449244 0.172033
vt 0.590645 0.186844
vt 0.590645 0.097256
vt 0.675695 0.097256
vt 0.675695 0.186844
vt 0.000225 0.010180
vt 0.999735 0.000223
vt 0.999735 0.103522
vt 0.918011 0.079971
vt 0.829484 0.079971
vt 0.000223 0.093525
vt 0.999559 0.103662
vt 0.000401 0.093708
vt 0.000399 0.010393
vt 0.829367 0.023942
vt 0.917863 0.023942
vt 0.999559 0.000399
vt 0.000223 0.279365
vt 0.000223 0.198226
vt 0.829585 0.194002
vt 0.829585 0.283589
vt 0.999777 0.108192
vt 0.999777 0.189332
vt 0.000223 0.193556
vt 0.000223 0.103968
vt 0.364996 0.699270
vt 0.364996 0.901459
vt 0.294880 0.901459
vt 0.294880 0.699270
vt 0.018825 0.634055
vt 0.018825 0.545527
vt 0.317365 0.488661
vt 0.317365 0.690921
vt 0.020596 0.630686
vt 0.020596 0.542190
vt 0.319030 0.485343
vt 0.319030 0.687532
vt 0.383077 0.384492
vt 0.383077 0.474048
vt 0.080688 0.444804
vt 0.012314 0.429270
vt 0.080688 0.413736
vt 0.380417 0.387528
vt 0.380417 0.477116
vt 0.077921 0.447862
vt 0.009524 0.432322
vt 0.077921 0.416783
vt 0.364993 0.702588
vt 0.364993 0.904848
vt 0.294853 0.904848
vt 0.294853 0.702588
vt 0.262139 0.834054
vt 0.262139 0.953937
vt 0.144202 0.953937
vt 0.144202 0.834054
vt 0.565141 0.716170
vt 0.565141 0.836096
vt 0.426518 0.836096
vt 0.426518 0.716170
vt 0.277820 0.812568
vt 0.157894 0.812568
vt 0.157894 0.694590
vt 0.277820 0.694590
vt 0.427891 0.972978
vt 0.427891 0.853094
vt 0.566465 0.853094
vt 0.566465 0.972978
vt 0.145047 0.806367
vt 0.006424 0.806367
vt 0.006424 0.688389
vt 0.145047 0.688389
vt 0.130738 0.824753
vt 0.130738 0.963327
vt 0.012801 0.963327
vt 0.012801 0.824753
vt 0.940542 0.937794
vt 0.842566 0.937794
vt 0.842566 0.837154
vt 0.940542 0.837154
vt 0.262938 0.142736
vt 0.262938 0.061626
vt 0.520105 0.053193
vt 0.520105 0.151169
vt 0.561040 0.050640
vt 0.561040 0.131780
vt 0.299208 0.140215
vt 0.299208 0.042205
vt 0.352140 0.256197
vt 0.332769 0.175165
vt 0.590075 0.175165
vt 0.613473 0.273046
vn 0.0209 0.0000 0.9998
vn 0.0007 0.9994 0.0337
vn 0.9549 0.0000 -0.2970
vn -0.0045 1.0000 -0.0041
vn -0.0045 -1.0000 -0.0041
vn 1.0000 0.0000 -0.0046
vn -0.9999 0.0000 0.0110
vn 0.2215 -0.9751 -0.0046
vn 0.0980 0.9952 -0.0021
vn 0.0980 -0.9952 -0.0021
vn -0.1572 0.0000 0.9876
vn -0.1984 0.0000 -0.9801
vn 0.2215 0.9751 -0.0046
vn 0.9998 0.0000 -0.0209
vn -0.0209 -0.0000 -0.9998
vn -0.9998 -0.0000 0.0209
vn 0.0000 1.0000 0.0000
vn 0.0000 -1.0000 0.0000
vn -0.9772 0.0000 -0.2122
vn 0.9615 0.0000 0.2747
vn 0.0007 -0.9994 0.0337
usemtl Material.001
s off
f 1/1/1 2/2/1 4/3/1 3/4/1
f 8/5/2 6/6/2 30/7/2 27/8/2
f 12/9/3 11/10/3 2/11/3 1/12/3
f 8/13/4 4/14/4 2/15/4 11/16/4 10/17/4 6/18/4
f 3/19/5 7/20/5 5/21/5 9/22/5 12/23/5 1/24/5
f 5/25/6 6/26/6 10/27/6 9/28/6
f 8/29/7 7/30/7 3/31/7 4/32/7
f 15/33/8 14/34/8 17/35/8 18/36/8
f 10/37/9 11/38/9 16/39/9 13/40/9
f 12/41/10 9/42/10 14/43/10 15/44/10
f 11/45/11 12/46/11 15/47/11 18/48/11 16/49/11
f 9/50/12 10/51/12 13/52/12 17/53/12 14/54/12
f 18/55/13 17/56/13 13/57/13 16/58/13
f 19/59/1 20/60/1 22/61/1 21/62/1
f 21/63/14 22/64/14 26/65/14 25/66/14
f 25/67/15 26/68/15 24/69/15 23/70/15
f 23/71/16 24/72/16 20/73/16 19/74/16
f 21/75/17 25/76/17 23/77/17 19/78/17
f 26/79/18 22/80/18 20/81/18 24/82/18
f 28/83/15 27/84/15 30/85/15 29/86/15
f 7/87/19 8/88/19 27/89/19 28/90/19
f 6/91/20 5/92/20 29/93/20 30/94/20
f 5/95/21 7/96/21 28/97/21 29/98/21
