# Blender v3.0.1 OBJ File: 'pickaxe.blend'
# www.blender.org
mtllib pickaxe_placed.mtl
o Cube.001
v 0.033289 -0.513545 0.482445
v 0.033289 -0.446455 0.482445
v -0.033289 -0.513545 0.482445
v -0.033289 -0.446455 0.482445
v 0.033289 -0.513545 -0.482445
v 0.033289 -0.446455 -0.482445
v -0.033289 -0.513545 -0.482445
v -0.033289 -0.446455 -0.482445
v -0.033289 -0.513545 0.368375
v -0.033289 -0.446455 0.368375
v 0.033289 -0.513545 0.368375
v 0.033289 -0.446455 0.368375
v -0.033289 -0.513545 0.432330
v 0.033289 -0.446455 0.432330
v -0.033289 -0.446455 0.432330
v 0.033289 -0.513545 0.432330
v -0.043234 -0.512325 0.379540
v -0.043234 -0.447675 0.379540
v 0.043234 -0.512325 0.379540
v 0.043234 -0.447675 0.379540
v -0.043234 -0.512325 0.421165
v 0.043234 -0.447675 0.421165
v -0.043234 -0.447675 0.421165
v 0.043234 -0.512325 0.421165
v -0.043234 -0.436510 0.432330
v -0.043234 -0.436510 0.368375
v 0.043234 -0.523490 0.432330
v 0.043234 -0.523490 0.368375
v 0.043234 -0.436510 0.368375
v -0.043234 -0.523490 0.368375
v -0.043234 -0.523490 0.432330
v 0.043234 -0.436510 0.432330
v -0.143657 -0.512325 0.407799
v -0.143657 -0.447675 0.407799
v -0.143657 -0.447675 0.366174
v -0.143657 -0.512325 0.366174
v 0.143657 -0.512325 0.366174
v 0.143657 -0.447675 0.366174
v 0.143657 -0.447675 0.407799
v 0.143657 -0.512325 0.407799
v -0.239742 -0.512325 0.373878
v -0.239742 -0.447675 0.373878
v -0.239742 -0.447675 0.332253
v -0.239742 -0.512325 0.332253
v 0.239742 -0.512325 0.332253
v 0.239742 -0.447675 0.332253
v 0.239742 -0.447675 0.373878
v 0.239742 -0.512325 0.373878
v -0.326453 -0.512325 0.326904
v -0.326453 -0.447675 0.326904
v -0.370901 -0.447675 0.285279
v -0.370901 -0.512325 0.285279
v 0.370901 -0.512325 0.285279
v 0.370901 -0.447675 0.285279
v 0.326453 -0.447675 0.326904
v 0.326453 -0.512325 0.326904
vt 0.849327 0.855893
vt 0.928114 0.855893
vt 0.928114 0.934079
vt 0.849327 0.934079
vt 0.000424 0.158849
vt 0.000424 0.080061
vt 0.999576 0.080061
vt 0.999576 0.158849
vt 0.928599 0.932735
vt 0.849811 0.932735
vt 0.849811 0.854548
vt 0.928599 0.854548
vt 0.849257 0.127235
vt 0.849257 0.048448
vt 0.908109 0.048448
vt 0.908109 0.127235
vt 0.999574 0.237885
vt 0.000424 0.237884
vt 0.000424 0.159698
vt 0.999574 0.159698
vt 0.806667 0.088625
vt 0.806667 0.147477
vt 0.728481 0.147477
vt 0.728481 0.088625
vt 0.999574 0.316921
vt 0.000424 0.316921
vt 0.000424 0.238735
vt 0.999574 0.238734
vt 0.463961 0.950266
vt 0.463961 0.872080
vt 0.475639 0.860402
vt 0.475639 0.961945
vt 0.000424 0.079212
vt 0.000424 0.000424
vt 0.999576 0.000425
vt 0.999576 0.079212
vt 0.199398 0.979332
vt 0.199398 0.901146
vt 0.211076 0.889467
vt 0.211076 0.991010
vt 0.809324 0.226358
vt 0.730537 0.226358
vt 0.730537 0.167506
vt 0.809324 0.167506
vt 0.806667 0.011699
vt 0.806667 0.070551
vt 0.728481 0.070551
vt 0.728481 0.011699
vt 0.193721 0.756430
vt 0.193721 0.677642
vt 0.205400 0.665964
vt 0.205400 0.768108
vt 0.206248 0.755829
vt 0.206248 0.677642
vt 0.217927 0.665964
vt 0.217927 0.767507
vt 0.057991 0.964572
vt 0.057991 0.889467
vt 0.159534 0.889467
vt 0.159534 0.964572
vt 0.399718 0.636650
vt 0.399718 0.516989
vt 0.475639 0.516989
vt 0.475639 0.636650
vt 0.400534 0.758010
vt 0.475639 0.758010
vt 0.475639 0.859553
vt 0.400534 0.859553
vt 0.181194 0.756430
vt 0.181194 0.677642
vt 0.192872 0.665964
vt 0.192872 0.768108
vt 0.174343 0.979933
vt 0.174343 0.901146
vt 0.186022 0.889467
vt 0.186022 0.991611
vt 0.186871 0.979933
vt 0.186871 0.901146
vt 0.198549 0.889467
vt 0.198549 0.991611
vt 0.211925 0.979332
vt 0.211925 0.901146
vt 0.223603 0.889467
vt 0.223603 0.991010
vt 0.218776 0.727958
vt 0.218776 0.679075
vt 0.231887 0.665964
vt 0.231887 0.741069
vt 0.219823 0.815806
vt 0.219823 0.766924
vt 0.232935 0.753813
vt 0.232935 0.828918
vt 0.160383 0.978500
vt 0.160383 0.902579
vt 0.173494 0.889467
vt 0.173494 0.991611
vt 0.390094 0.446312
vt 0.314172 0.446312
vt 0.301061 0.433200
vt 0.403205 0.433200
vt 0.225371 0.838239
vt 0.225371 0.789357
vt 0.238482 0.776245
vt 0.238482 0.851350
vt 0.593147 0.972727
vt 0.593147 0.923845
vt 0.606259 0.910734
vt 0.606259 0.985839
vt 0.167234 0.754997
vt 0.167234 0.679075
vt 0.180345 0.665964
vt 0.180345 0.768108
vt 0.390094 0.466072
vt 0.314172 0.466072
vt 0.301061 0.452961
vt 0.403205 0.452961
vt 0.592299 0.910701
vt 0.476488 0.910701
vt 0.476488 0.834780
vt 0.592299 0.834780
vt 0.629261 0.579238
vt 0.510290 0.579238
vt 0.510290 0.503317
vt 0.629261 0.503317
vt 0.015324 0.682057
vt 0.040186 0.568947
vt 0.072733 0.505270
vt 0.062301 0.668543
vt 0.055214 0.787994
vt 0.072733 0.905669
vt 0.025756 0.919183
vt 0.008237 0.801508
vt 0.476488 0.758010
vt 0.595459 0.758010
vt 0.595459 0.833931
vt 0.476488 0.833931
vt 0.534798 0.479265
vt 0.534798 0.403343
vt 0.606310 0.403343
vt 0.606310 0.479265
vt 0.301061 0.585892
vt 0.301061 0.466921
vt 0.376982 0.466921
vt 0.376982 0.585892
vt 0.192990 0.755910
vt 0.203422 0.919183
vt 0.170875 0.855506
vt 0.146013 0.742396
vt 0.138926 0.622944
vt 0.156444 0.505270
vt 0.203422 0.518784
vt 0.185903 0.636458
vt 0.377831 0.585892
vt 0.377831 0.466921
vt 0.453753 0.466921
vt 0.453753 0.585892
vt 0.258335 0.755910
vt 0.268766 0.919183
vt 0.236220 0.855506
vt 0.211358 0.742396
vt 0.204270 0.622944
vt 0.221789 0.505270
vt 0.268766 0.518784
vt 0.251248 0.636458
vt 0.552410 0.516989
vt 0.552410 0.636650
vt 0.476488 0.636650
vt 0.476488 0.516989
vt 0.475639 0.637499
vt 0.475639 0.757161
vt 0.399718 0.757161
vt 0.399718 0.637499
vt 0.080669 0.682057
vt 0.105530 0.568947
vt 0.138077 0.505270
vt 0.127646 0.668543
vt 0.120559 0.787994
vt 0.138077 0.905669
vt 0.091100 0.919183
vt 0.073581 0.801508
vt 0.476488 0.757161
vt 0.476488 0.637499
vt 0.552410 0.637499
vt 0.552410 0.757161
vt 0.300212 0.509122
vt 0.136606 0.509122
vt 0.136606 0.433200
vt 0.300212 0.433200
vt 0.094873 0.768108
vt 0.094873 0.692187
vt 0.166385 0.692187
vt 0.166385 0.768108
vt 0.300212 0.585892
vt 0.136606 0.585892
vt 0.136606 0.509971
vt 0.300212 0.509971
vt 0.553258 0.753309
vt 0.553259 0.637499
vt 0.629180 0.637499
vt 0.629180 0.753309
vn 0.0000 0.0000 1.0000
vn -1.0000 0.0000 -0.0000
vn 0.0000 0.0000 -1.0000
vn 1.0000 0.0000 0.0000
vn 0.0000 -1.0000 0.0000
vn 0.0000 1.0000 -0.0000
vn -0.3329 0.0000 0.9430
vn -0.4763 0.0000 0.8793
vn -0.1319 0.0000 0.9913
vn 0.1319 0.0000 -0.9913
vn -0.6835 0.0000 0.7299
vn -0.1319 0.0000 -0.9913
vn 0.1319 0.0000 0.9913
vn 0.3329 0.0000 -0.9430
vn -0.3329 0.0000 -0.9430
vn 0.3329 0.0000 0.9430
vn 0.3372 0.0000 -0.9414
vn 0.6835 0.0000 0.7299
vn -0.3372 0.0000 -0.9414
vn 0.4763 0.0000 0.8793
usemtl Material.001
s off
f 1/1/1 2/2/1 4/3/1 3/4/1
f 9/5/2 10/6/2 8/7/2 7/8/2
f 7/9/3 8/10/3 6/11/3 5/12/3
f 16/13/4 14/14/4 2/15/4 1/16/4
f 9/17/5 7/18/5 5/19/5 11/20/5
f 15/21/6 4/22/6 2/23/6 14/24/6
f 8/25/6 10/26/6 12/27/6 6/28/6
f 15/29/1 14/30/1 32/31/1 25/32/1
f 5/33/4 6/34/4 12/35/4 11/36/4
f 9/37/3 11/38/3 28/39/3 30/40/3
f 3/41/2 4/42/2 15/43/2 13/44/2
f 3/45/5 13/46/5 16/47/5 1/48/5
f 10/49/3 9/50/3 30/51/3 26/52/3
f 16/53/1 13/54/1 31/55/1 27/56/1
f 31/57/5 30/58/5 28/59/5 27/60/5
f 34/61/7 42/62/7 41/63/7 33/64/7
f 26/65/6 25/66/6 32/67/6 29/68/6
f 13/69/1 15/70/1 25/71/1 31/72/1
f 11/73/3 12/74/3 29/75/3 28/76/3
f 14/77/1 16/78/1 27/79/1 32/80/1
f 12/81/3 10/82/3 26/83/3 29/84/3
f 18/85/2 23/86/2 25/87/2 26/88/2
f 19/89/4 24/90/4 27/91/4 28/92/4
f 20/93/4 19/94/4 28/95/4 29/96/4
f 17/97/2 18/98/2 26/99/2 30/100/2
f 21/101/2 17/102/2 30/103/2 31/104/2
f 22/105/4 20/106/4 29/107/4 32/108/4
f 23/109/2 21/110/2 31/111/2 25/112/2
f 24/113/4 22/114/4 32/115/4 27/116/4
f 42/117/8 50/118/8 49/119/8 41/120/8
f 23/121/9 34/122/9 33/123/9 21/124/9
f 41/125/5 49/126/5 52/127/5 44/128/5 36/129/5 17/130/5 21/131/5 33/132/5
f 17/133/10 36/134/10 35/135/10 18/136/10
f 49/137/11 50/138/11 51/139/11 52/140/11
f 20/141/12 38/142/12 37/143/12 19/144/12
f 45/145/5 53/146/5 56/147/5 48/148/5 40/149/5 24/150/5 19/151/5 37/152/5
f 24/153/13 40/154/13 39/155/13 22/156/13
f 43/157/6 51/158/6 50/159/6 42/160/6 34/161/6 23/162/6 18/163/6 35/164/6
f 36/165/14 44/166/14 43/167/14 35/168/14
f 38/169/15 46/170/15 45/171/15 37/172/15
f 47/173/6 55/174/6 54/175/6 46/176/6 38/177/6 20/178/6 22/179/6 39/180/6
f 40/181/16 48/182/16 47/183/16 39/184/16
f 44/185/17 52/186/17 51/187/17 43/188/17
f 53/189/18 54/190/18 55/191/18 56/192/18
f 46/193/19 54/194/19 53/195/19 45/196/19
f 48/197/20 56/198/20 55/199/20 47/200/20
