# Blender v3.0.1 OBJ File: 'stone_knife.blend'
# www.blender.org
mtllib stone_knife_placed.mtl
o Sphere_Sphere.001
v 0.000863 -0.471011 0.176439
v 0.000886 -0.498528 0.175596
v -0.050550 -0.469136 0.113863
v -0.050527 -0.496654 0.113020
v -0.099878 -0.465263 -0.013908
v -0.099856 -0.492780 -0.014751
v -0.043974 -0.461981 -0.119541
v -0.043951 -0.489498 -0.120384
v 0.000835 -0.434038 -0.025270
v 0.045693 -0.461907 -0.119540
v 0.045715 -0.489425 -0.120383
v 0.101600 -0.465097 -0.013905
v 0.101622 -0.492615 -0.014748
v 0.052274 -0.469052 0.113864
v 0.052297 -0.496569 0.113021
v 0.000894 -0.504916 -0.027442
v 0.000875 -0.485408 0.196857
v -0.053988 -0.483281 0.125966
v -0.106627 -0.478890 -0.018783
v -0.046971 -0.475176 -0.138453
v 0.048712 -0.475097 -0.138452
v 0.108371 -0.478714 -0.018780
v 0.055736 -0.483191 0.125967
vt 0.409043 0.619146
vt 0.276260 0.305312
vt 0.503535 0.323923
vt 0.843928 0.393960
vt 0.950228 0.682718
vt 0.727578 0.713901
vt 0.289463 0.822940
vt 0.287808 0.759994
vt 0.434265 0.657980
vt 0.835146 0.927078
vt 0.542484 0.312709
vt 0.377426 0.082196
vt 0.626188 0.931188
vt 0.393897 0.025546
vt 0.164680 0.088292
vt 0.504851 0.690402
vt 0.145883 0.030011
vt 0.049471 0.335854
vt 0.600983 0.398221
vt 0.009855 0.326573
vt 0.159494 0.625772
vt 0.720203 0.260494
vt 0.136350 0.665864
vt 0.576290 0.359772
vt 0.719138 0.198638
vt 0.466056 0.701136
vt 0.609188 0.986822
vt 0.853371 0.984903
vt 0.989510 0.692249
vt 0.867278 0.354700
vn -0.2793 0.9504 0.1366
vn -0.1177 -0.9929 0.0153
vn -0.5958 0.6337 0.4934
vn -0.1314 -0.9863 -0.1002
vn -0.8544 0.3998 0.3318
vn -0.3072 0.9423 -0.1333
vn 0.0008 -0.9865 -0.1640
vn -0.7308 0.5819 -0.3568
vn -0.0008 0.9589 -0.2838
vn 0.1330 -0.9860 -0.1002
vn -0.0007 0.8202 -0.5721
vn 0.3056 0.9428 -0.1333
vn 0.1193 -0.9927 0.0153
vn 0.7299 0.5831 -0.3567
vn 0.2777 0.9509 0.1366
vn 0.0761 -0.9966 0.0314
vn 0.8538 0.4012 0.3318
vn 0.1790 0.9677 0.1774
vn 0.5947 0.6347 0.4934
vn -0.0745 -0.9967 0.0314
vn -0.1806 0.9674 0.1774
vn 0.5958 -0.6627 0.4537
vn 0.8545 -0.4193 0.3067
vn 0.7308 -0.5590 -0.3917
vn 0.0007 -0.7836 -0.6213
vn -0.7299 -0.5602 -0.3918
vn -0.8538 -0.4207 0.3067
vn -0.5947 -0.6637 0.4537
usemtl None
s off
f 3/1/1 9/2/1 5/3/1
f 4/4/2 6/5/2 16/6/2
f 17/7/3 1/8/3 3/1/3 18/9/3
f 6/5/4 8/10/4 16/6/4
f 18/9/5 3/1/5 5/3/5 19/11/5
f 5/3/6 9/2/6 7/12/6
f 8/10/7 11/13/7 16/6/7
f 19/11/8 5/3/8 7/12/8 20/14/8
f 7/12/9 9/2/9 10/15/9
f 11/13/10 13/16/10 16/6/10
f 20/14/11 7/12/11 10/15/11 21/17/11
f 10/15/12 9/2/12 12/18/12
f 13/16/13 15/19/13 16/6/13
f 21/17/14 10/15/14 12/18/14 22/20/14
f 12/18/15 9/2/15 14/21/15
f 15/19/16 2/22/16 16/6/16
f 22/20/17 12/18/17 14/21/17 23/23/17
f 14/21/18 9/2/18 1/8/18
f 23/23/19 14/21/19 1/8/19 17/7/19
f 16/6/20 2/22/20 4/4/20
f 1/8/21 9/2/21 3/1/21
f 15/19/22 23/24/22 17/25/22 2/22/22
f 13/16/23 22/26/23 23/24/23 15/19/23
f 11/13/24 21/27/24 22/26/24 13/16/24
f 8/10/25 20/28/25 21/27/25 11/13/25
f 6/5/26 19/29/26 20/28/26 8/10/26
f 4/4/27 18/30/27 19/29/27 6/5/27
f 2/22/28 17/25/28 18/30/28 4/4/28
